<svg id="Capa_1" enable-background="new 0 0 512 512" height="512" viewBox="0 0 512 512" width="512" xmlns="http://www.w3.org/2000/svg"><g><g><path d="m437 241h-362c-5.01 0-9.697-2.505-12.48-6.68l-60-90c-3.354-5.039-3.354-11.602 0-16.641l60-90c2.783-4.174 7.47-6.679 12.48-6.679h362c5.01 0 9.697 2.505 12.48 6.68l60 90c3.354 5.039 3.354 11.602 0 16.641l-60 90c-2.783 4.174-7.47 6.679-12.48 6.679z" fill="#fed843"/></g><path d="m256 241h181c5.01 0 9.697-2.505 12.48-6.68l60-90c3.354-5.039 3.354-11.602 0-16.641l-60-90c-2.783-4.174-7.47-6.679-12.48-6.679h-181z" fill="#fabe2c"/><g id="Riddle_1_"><g><path d="m407 121h-151c-8.291 0-15-6.709-15-15s6.709-15 15-15h151c8.291 0 15 6.709 15 15s-6.709 15-15 15z" fill="#474f54"/></g><g><path d="m286 181h-181c-8.291 0-15-6.709-15-15s6.709-15 15-15h181c8.291 0 15 6.709 15 15s-6.709 15-15 15z" fill="#474f54"/></g><g><path d="m407 181h-61c-8.291 0-15-6.709-15-15s6.709-15 15-15h61c8.291 0 15 6.709 15 15s-6.709 15-15 15z" fill="#32393f"/></g><g><path d="m196 121h-91c-8.291 0-15-6.709-15-15s6.709-15 15-15h91c8.291 0 15 6.709 15 15s-6.709 15-15 15z" fill="#474f54"/></g></g><path d="m407 121c8.291 0 15-6.709 15-15s-6.709-15-15-15h-151v30z" fill="#32393f"/><path d="m256 181h30c8.291 0 15-6.709 15-15s-6.709-15-15-15h-30z" fill="#32393f"/><g id="Riddle_3_"><g><path d="m196 361h-151c-3.984 0-7.793-1.582-10.605-4.395l-30-30c-5.859-5.859-5.859-15.352 0-21.211l30-30c2.812-2.812 6.621-4.394 10.605-4.394h151c3.984 0 7.793 1.582 10.605 4.395l30 30c5.859 5.859 5.859 15.352 0 21.211l-30 30c-2.812 2.812-6.621 4.394-10.605 4.394z" fill="#fed843"/></g><g><path d="m467 361h-151c-3.984 0-7.793-1.582-10.605-4.395l-30-30c-5.859-5.859-5.859-15.352 0-21.211l30-30c2.812-2.812 6.621-4.394 10.605-4.394h151c3.984 0 7.793 1.582 10.605 4.395l30 30c5.859 5.859 5.859 15.352 0 21.211l-30 30c-2.812 2.812-6.621 4.394-10.605 4.394z" fill="#fabe2c"/></g><g><path d="m467 481h-151c-3.984 0-7.793-1.582-10.605-4.395l-30-30c-5.859-5.859-5.859-15.352 0-21.211l30-30c2.812-2.812 6.621-4.394 10.605-4.394h151c3.984 0 7.793 1.582 10.605 4.395l30 30c5.859 5.859 5.859 15.352 0 21.211l-30 30c-2.812 2.812-6.621 4.394-10.605 4.394z" fill="#fabe2c"/></g><g><path d="m196 481h-151c-3.984 0-7.793-1.582-10.605-4.395l-30-30c-5.859-5.859-5.859-15.352 0-21.211l30-30c2.812-2.812 6.621-4.394 10.605-4.394h151c3.984 0 7.793 1.582 10.605 4.395l30 30c5.859 5.859 5.859 15.352 0 21.211l-30 30c-2.812 2.812-6.621 4.394-10.605 4.394z" fill="#fed843"/></g></g></g></svg>