
<svg version="1.1" id="Capa_1" xmlns="http://www.w3.org/2000/svg" xmlns:xlink="http://www.w3.org/1999/xlink" x="0px" y="0px"
	 viewBox="0 0 512 512" style="enable-background:new 0 0 512 512;" xml:space="preserve">
<g>
	<path style="fill:#84CAFF;" d="M494.41,162.57C461.6,78.89,386,16.69,294.54,2.88C281.97,0.98,269.1,0,256,0
		C175.2,0,103.15,37.43,56.23,95.9C21.05,139.75,0,195.42,0,256c0,33.28,6.35,65.08,17.91,94.25
		C51,433.76,126.75,495.72,218.27,509.24c12.31,1.82,24.91,2.76,37.73,2.76c81.1,0,153.39-37.71,200.29-96.56
		C491.16,371.7,512,316.28,512,256C512,223.03,505.77,191.52,494.41,162.57z M310.09,348.73l-107.26,0.56l-54.08-93.47l53.45-92.73
		l107.28-0.19l53.89,92.7L310.09,348.73z"/>
	<path style="fill:#84CAFF;" d="M294.54,2.88L202.2,163.09l-53.45,92.73L56.23,95.9C103.15,37.43,175.2,0,256,0
		C269.1,0,281.97,0.98,294.54,2.88z"/>
</g>
<path style="fill:#00A6FF;" d="M494.41,162.57l-184.93,0.33l-107.28,0.19L294.54,2.88C386,16.69,461.6,78.89,494.41,162.57z"/>
<path style="fill:#84CAFF;" d="M512,256c0,60.28-20.84,115.7-55.71,159.44L363.37,255.6l-53.89-92.7l184.93-0.33
	C505.77,191.52,512,223.03,512,256z"/>
<path style="fill:#00A6FF;" d="M456.29,415.44C409.39,474.29,337.1,512,256,512c-12.82,0-25.42-0.94-37.73-2.76l91.82-160.51
	l53.28-93.13L456.29,415.44z"/>
<path style="fill:#84CAFF;" d="M310.09,348.73l-91.82,160.51C126.75,495.72,51,433.76,17.91,350.25l184.92-0.96L310.09,348.73z"/>
<path style="fill:#00A6FF;" d="M202.83,349.29l-184.92,0.96C6.35,321.08,0,289.28,0,256c0-60.58,21.05-116.25,56.23-160.1
	l92.52,159.92L202.83,349.29z"/>
</svg>
