<svg  height="512" viewBox="0 0 512 512" width="512" xmlns="http://www.w3.org/2000/svg">
<g>
<path d="m286 316c-8.284 0-15 6.716-15 15v30c0 8.284 6.716 15 15 15s15-6.716 15-15v-30c0-8.285-6.716-15-15-15z"/>
<path d="m346 316c-8.284 0-15 6.716-15 15v30c0 8.284 6.716 15 15 15s15-6.716 15-15v-30c0-8.285-6.716-15-15-15z"/>
<path d="m406 316c-8.284 0-15 6.716-15 15v30c0 8.284 6.716 15 15 15s15-6.716 15-15v-30c0-8.285-6.716-15-15-15z"/>
<path d="m511.074 461.812-19.533-53c13.582-20.532 20.459-41.627 20.459-62.812 0-74.439-74.468-135-166-135-8.422 0-16.753.518-24.96 1.532 6.545-14.685 9.96-30.375 9.96-46.532 0-80.014-80.372-135-165-135-31.171 0-61.416 7.231-87.931 20.966l-57.945-21.064c-5.485-1.993-11.634-.622-15.754 3.514-4.12 4.138-5.464 10.292-3.444 15.771l19.533 53c-13.582 20.532-20.459 41.627-20.459 62.812 0 74.439 74.468 135 166 135 8.444 0 16.793-.522 24.996-1.534-6.595 14.75-9.996 30.437-9.996 46.535 0 80.014 80.372 135 165 135 31.171 0 61.416-7.231 87.931-20.966l57.945 21.063c5.541 2.014 11.676.582 15.754-3.515 4.12-4.138 5.464-10.291 3.444-15.77zm-481.074-295.813c0-16.961 6.498-34.37 19.314-51.741 2.996-4.062 3.75-9.357 2.004-14.093l-11.066-30.026 33.916 12.329c4.137 1.505 8.725 1.114 12.548-1.063 23.436-13.35 50.852-20.406 79.284-20.406 74.439 0 135 47.103 135 105 0 56.447-59.093 105-135 105-76.446.001-136-48.804-136-105zm430.682 245.834 11.066 30.027-33.916-12.329c-4.137-1.504-8.725-1.114-12.548 1.063-23.435 13.35-50.851 20.406-79.284 20.406-74.439 0-135-47.103-135-105 0-20.013 7.275-39.36 21.066-56.187 26.04-9.282 48.244-23.824 65.014-41.666 15.578-4.741 32.015-7.147 48.92-7.147 76.446 0 136 48.804 136 105 0 16.961-6.498 34.37-19.314 51.741-2.996 4.061-3.75 9.357-2.004 14.092z"/>
<path d="m166 90.999c-24.813 0-45 20.187-45 45 0 8.284 6.716 15 15 15s15-6.716 15-15c0-8.271 6.729-15 15-15s15 6.729 15 15c0 6.322-3.994 12-9.939 14.129-11.999 4.299-20.061 15.748-20.061 28.49v2.381c0 8.284 6.716 15 15 15s15-6.716 15-15v-2.381c0-.108.073-.209.178-.247 17.838-6.39 29.822-23.417 29.822-42.372 0-24.812-20.186-45-45-45z"/>
<circle cx="166" cy="225.999" r="15"/>
</g>
</svg>